<?xml version="1.0" encoding="UTF-8" standalone="no"?>
<!-- Created with Inkscape (http://www.inkscape.org/) -->

<svg
   xmlns:dc="http://purl.org/dc/elements/1.1/"
   xmlns:cc="http://creativecommons.org/ns#"
   xmlns:rdf="http://www.w3.org/1999/02/22-rdf-syntax-ns#"
   xmlns:svg="http://www.w3.org/2000/svg"
   xmlns="http://www.w3.org/2000/svg"
   version="1.1"
   width="32"
   height="32"
   id="svg3110">
  <metadata
     id="metadata3122">
    <rdf:RDF>
      <cc:Work
         rdf:about="">
        <dc:format>image/svg+xml</dc:format>
        <dc:type
           rdf:resource="http://purl.org/dc/dcmitype/StillImage" />
        <dc:title></dc:title>
      </cc:Work>
    </rdf:RDF>
  </metadata>
  <defs
     id="defs3120" />
  <g
     id="g3112">
    <path
       d="m 12.3773,12.217108 0.104904,0.430023 1.710724,0.328796 1.580658,0.979126 11.892473,-1.21582 0.70578,-1.428223 -1.868103,-0.166046 0.01277,-0.463043 1.956863,0.177246 0.917419,-1.505707 0.397659,0.201996 -0.938736,1.63739 0.744156,1.736389 -0.419037,0.177246 -0.567505,-1.456238 -0.230637,2.157898 -10.174164,2.603516 c -0.488327,1.061707 -0.578705,2.398254 -1.242264,3.160339 -0.663559,0.762115 -1.599352,0.979736 -2.460924,1.444824 -0.04402,0.447357 -0.0641,1.20752 -0.775558,1.218384 -0.711487,0.01083 -0.829025,-0.547577 -0.822784,-1.155426 L 9.140895,21.241124 C 9.036677,21.791264 9.18809,22.430302 8.264583,22.38358 7.341045,22.336827 7.58073,21.126927 7.473888,21.080235 7.367076,21.033482 7.059505,21.165623 5.181728,20.465825 3.303982,19.766057 3.220883,15.824376 6.44775,15.495946 6.835797,15.238439 7.94154,15.228459 8.057323,14.376988 8.188549,13.793187 8.938427,13.234166 9.985332,12.996862 l 0.919647,-0.18448 0.02151,-0.619904 -8.372108,0.07184 -0.32563,-0.942444 8.432097,0.09116 -3.273376,-2.640137 1.148712,-0.103882 3.246048,2.302948 9.37578,-2.424774 1.23317,0.502167 -9.663912,2.370667 7.231142,1.786865 -1.157776,0.811432 -6.423342,-1.801208 z"
       id="path3116"
       style="fill:#6688aa;stroke-width:0" />
  </g>
</svg>
