<svg width="32" height="32" xmlns="http://www.w3.org/2000/svg">
 <g>
  <rect fill="none" stroke="#3f3f3f" ry="2" rx="2" height="30" width="30" y="0.983984" x="0.966016"/>
  <path fill="#68a" stroke-width="0" d="m12.3773,12.217108l0.104904,0.430023l1.710724,0.328796l1.580658,0.979126l11.892473,-1.21582l0.70578,-1.428223l-1.868103,-0.166046l0.012772,-0.463043l1.956863,0.177246l0.917419,-1.505707l0.397659,0.201996l-0.938736,1.63739l0.744156,1.736389l-0.419037,0.177246l-0.567505,-1.456238l-0.230637,2.157898l-10.174164,2.603516c-0.488327,1.061707 -0.578705,2.398254 -1.242264,3.160339c-0.663559,0.762115 -1.599352,0.979736 -2.460924,1.444824c-0.044022,0.447357 -0.064102,1.20752 -0.775558,1.218384c-0.711487,0.010834 -0.829025,-0.547577 -0.822784,-1.155426l-3.760101,0.161346c-0.104218,0.55014 0.047195,1.189178 -0.876312,1.142456c-0.923538,-0.046753 -0.683853,-1.256653 -0.790695,-1.303345c-0.106812,-0.046753 -0.414383,0.085388 -2.29216,-0.61441c-1.877746,-0.699768 -1.960845,-4.641449 1.266022,-4.969879c0.388047,-0.257507 1.49379,-0.267487 1.609573,-1.118958c0.131226,-0.583801 0.881104,-1.142822 1.928009,-1.380126l0.919647,-0.18448l0.021515,-0.619904l-8.372108,0.071838l-0.32563,-0.942444l8.432097,0.091156l-3.273376,-2.640137l1.148712,-0.103882l3.246048,2.302948l9.37578,-2.424774l1.23317,0.502167l-9.663912,2.370667l7.231142,1.786865l-1.157776,0.811432l-6.423342,-1.801208z"/>
 </g>
</svg>