<?xml version="1.0" encoding="UTF-8" standalone="no"?>
<!-- Created with Inkscape (http://www.inkscape.org/) -->

<svg
   xmlns:dc="http://purl.org/dc/elements/1.1/"
   xmlns:cc="http://creativecommons.org/ns#"
   xmlns:rdf="http://www.w3.org/1999/02/22-rdf-syntax-ns#"
   xmlns:svg="http://www.w3.org/2000/svg"
   xmlns="http://www.w3.org/2000/svg"
   version="1.1"
   width="32"
   height="32"
   id="svg3110">
  <metadata
     id="metadata3122">
    <rdf:RDF>
      <cc:Work
         rdf:about="">
        <dc:format>image/svg+xml</dc:format>
        <dc:type
           rdf:resource="http://purl.org/dc/dcmitype/StillImage" />
        <dc:title></dc:title>
      </cc:Work>
    </rdf:RDF>
  </metadata>
  <defs
     id="defs3120" />
  <g
     id="g3112">
    <rect
       width="30"
       height="30"
       rx="2"
       ry="2"
       x="0.96601599"
       y="0.98398399"
       id="rect3114"
       style="fill:none;stroke:#3f3f3f" />
    <path
       d="m 12.3773,12.217108 0.104904,0.430023 1.710724,0.328796 1.580658,0.979126 11.892473,-1.21582 0.70578,-1.428223 -1.868103,-0.166046 0.01277,-0.463043 1.956863,0.177246 0.917419,-1.505707 0.397659,0.201996 -0.938736,1.63739 0.744156,1.736389 -0.419037,0.177246 -0.567505,-1.456238 -0.230637,2.157898 -10.174164,2.603516 c -0.488327,1.061707 -0.578705,2.398254 -1.242264,3.160339 -0.663559,0.762115 -1.599352,0.979736 -2.460924,1.444824 -0.04402,0.447357 -0.0641,1.20752 -0.775558,1.218384 -0.711487,0.01083 -0.829025,-0.547577 -0.822784,-1.155426 L 9.140895,21.241124 C 9.036677,21.791264 9.18809,22.430302 8.264583,22.38358 7.341045,22.336827 7.58073,21.126927 7.473888,21.080235 7.367076,21.033482 7.059505,21.165623 5.181728,20.465825 3.303982,19.766057 3.220883,15.824376 6.44775,15.495946 6.835797,15.238439 7.94154,15.228459 8.057323,14.376988 8.188549,13.793187 8.938427,13.234166 9.985332,12.996862 l 0.919647,-0.18448 0.02151,-0.619904 -8.372108,0.07184 -0.32563,-0.942444 8.432097,0.09116 -3.273376,-2.640137 1.148712,-0.103882 3.246048,2.302948 9.37578,-2.424774 1.23317,0.502167 -9.663912,2.370667 7.231142,1.786865 -1.157776,0.811432 -6.423342,-1.801208 z"
       id="path3116"
       style="fill:#6688aa;stroke-width:0" />
    <path
       d="M 2.5410499,31.356837 C 1.8270705,31.18349 1.2233206,30.752807 0.90400099,30.189054 l -0.3029297,-0.534817 -0.002231,-13.66775 C 0.59696323,4.4820713 0.62688674,2.2607824 0.78789473,1.9525885 1.044729,1.4609685 1.6632506,0.89038643 2.130861,0.71371097 2.3912252,0.61533856 6.8004057,0.56949153 16.00067,0.56949153 c 13.199668,0 13.499414,0.005772 14.017216,0.2699348 0.291013,0.14846414 0.700448,0.49454597 0.909852,0.76907067 l 0.380737,0.4991359 0.03918,13.5021161 c 0.02155,7.426163 0.0033,13.701725 -0.04059,13.945692 -0.09284,0.516276 -0.737715,1.300823 -1.340755,1.631146 -0.386826,0.211889 -1.486138,0.232122 -13.708686,0.252316 -7.3084745,0.01207 -13.4809343,-0.02486 -13.7165771,-0.08207 l 0,0 z M 29.766568,30.323197 C 30.5936,29.895523 30.562902,30.451894 30.560713,15.929779 30.559154,5.5961793 30.521327,2.5973009 30.389246,2.3362732 30.296038,2.1520711 30.013338,1.8622405 29.761024,1.6922055 l -0.458756,-0.3091547 -13.281488,0 c -12.0117603,0 -13.3261503,0.021192 -13.7486338,0.2216739 C 1.3599001,2.0376138 1.4101169,1.1992721 1.4106764,15.986487 c 4.976e-4,13.163202 0.00524,13.404322 0.2720433,13.841928 0.1493451,0.24495 0.4084391,0.500405 0.5757644,0.567677 0.1731215,0.0696 6.0774458,0.126015 13.7007919,0.130906 11.906359,0.0076 13.442252,-0.01503 13.807292,-0.203801 z"
       id="path3187"
       style="fill:#008000;stroke:#000000;stroke-width:0.13559322;stroke-opacity:1" />
    <path
       d="M 7.8101695,22.101695 C 7.720678,22.012203 7.6465233,21.813898 7.6453813,21.661017 7.6419219,21.197887 7.4622027,21.05161 6.6304957,20.834978 4.6870336,20.32877 4.1295051,19.812243 4.0279191,18.423799 3.9775059,17.73477 4.0224479,17.47855 4.2816317,16.977366 c 0.3562457,-0.688874 0.9929566,-1.172035 1.7199619,-1.305175 0.2713269,-0.04969 0.8109352,-0.229663 1.1991297,-0.399941 0.5383111,-0.236126 0.7511366,-0.418084 0.8968169,-0.766746 0.2499893,-0.598308 0.913088,-1.144768 1.6238247,-1.338194 0.3135881,-0.08534 0.7227031,-0.198453 0.9091431,-0.251357 0.240065,-0.06812 0.351965,-0.206734 0.383471,-0.475018 l 0.04449,-0.378828 -4.2112194,0.100287 -4.2112192,0.100287 -0.1383532,-0.363896 C 2.421581,11.698642 2.359322,11.509234 2.359322,11.477878 c 0,-0.03136 1.8762712,-0.07315 4.1694916,-0.09287 L 10.698305,11.349153 9.1753942,10.128814 C 7.6604225,8.9148364 7.6545311,8.9078593 8.0452957,8.7904498 8.4017799,8.6833402 8.5904789,8.7818718 10.085681,9.8558641 l 1.647573,1.1834389 1.923204,-0.486179 c 1.057762,-0.267398 3.177663,-0.811745 4.710891,-1.2096592 2.713639,-0.7042624 2.80105,-0.7178479 3.290618,-0.5114387 L 22.160896,9.0440678 17.41418,10.19661 c -2.610694,0.633898 -4.747404,1.184561 -4.748245,1.223695 -8.4e-4,0.03913 1.588082,0.456182 3.53094,0.926772 2.975845,0.720797 3.507374,0.885853 3.373227,1.047492 -0.215455,0.259607 -0.157046,0.25738 3.873966,-0.14771 4.614497,-0.463725 4.209356,-0.360976 4.620202,-1.171742 0.19095,-0.376823 0.311288,-0.721028 0.267417,-0.7649 -0.04387,-0.04387 -0.444585,-0.106155 -0.890473,-0.138407 -0.552022,-0.03993 -0.810706,-0.115823 -0.810706,-0.237845 0,-0.13894 0.211842,-0.161444 0.942856,-0.100158 l 0.942857,0.07905 0.433344,-0.697105 c 0.238339,-0.383407 0.48524,-0.6971039 0.54867,-0.6971039 0.18175,0 0.14304,0.1185722 -0.304461,0.9325739 l -0.419785,0.763589 0.355131,0.803014 c 0.205327,0.464284 0.304636,0.853508 0.235425,0.922718 -0.06921,0.06921 -0.25504,-0.212586 -0.44054,-0.668044 L 28.60317,11.48475 28.50601,12.027123 c -0.05344,0.298305 -0.100676,0.798826 -0.104974,1.11227 -0.0074,0.540835 -0.03375,0.577097 -0.516289,0.711058 -0.279661,0.07764 -2.589801,0.673806 -5.133642,1.324817 l -4.625169,1.183656 -0.439336,1.34035 c -0.534328,1.630159 -0.961072,2.149697 -2.296316,2.795646 -0.73672,0.356403 -0.963164,0.532394 -0.963164,0.748567 0,0.431069 -0.38265,0.885331 -0.745763,0.885331 -0.348429,0 -0.745763,-0.44953 -0.745763,-0.84373 0,-0.21159 -0.128299,-0.239081 -1.050847,-0.225168 -0.577966,0.0087 -1.447458,0.05448 -1.9322036,0.101695 -0.8093932,0.07884 -0.8851846,0.113525 -0.9282465,0.42483 -0.02579,0.18644 -0.1095322,0.415254 -0.1860943,0.508474 -0.17712,0.215659 -0.8149476,0.219865 -1.0280321,0.0068 z M 17.80565,13.776241 c 0.03107,-0.02981 0.03107,-0.07325 0,-0.09652 -0.110699,-0.0829 -5.131143,-1.449214 -5.325073,-1.449214 -0.126064,0 -0.17362,0.09155 -0.131408,0.252974 0.05,0.191208 0.270995,0.286916 0.905126,0.391995 0.547883,0.09079 1.120353,0.311232 1.649965,0.635362 0.796955,0.487747 0.828598,0.494809 1.827943,0.407973 0.559322,-0.0486 1.042373,-0.112758 1.073447,-0.142571 l 0,0 z"
       id="path3189"
       style="fill:#008000;stroke:#000000;stroke-width:0.13559322;stroke-opacity:1" />
  </g>
</svg>
